<?xml version="1.0" standalone="no"?>
<!DOCTYPE svg PUBLIC "-//W3C//DTD SVG 20010904//EN"
 "http://www.w3.org/TR/2001/REC-SVG-20010904/DTD/svg10.dtd">
<svg version="1.0" xmlns="http://www.w3.org/2000/svg"
 width="260.000000pt" height="260.000000pt" viewBox="0 0 260.000000 260.000000"
 preserveAspectRatio="xMidYMid meet">
<metadata>
Created by potrace 1.11, written by Peter Selinger 2001-2013
</metadata>
<g transform="translate(0.000000,260.000000) scale(0.100000,-0.100000)"
fill="#000000" stroke="none">
<path d="M0 1300 l0 -1300 35 0 35 0 0 1239 c0 1238 0 1238 21 1265 l20 26
1179 0 1179 0 20 -26 c21 -27 21 -27 21 -1265 l0 -1239 45 0 45 0 0 1300 0
1300 -1300 0 -1300 0 0 -1300z"/>
<path d="M1153 1999 c-116 -57 -188 -216 -149 -329 15 -45 15 -45 -13 -75 -90
-98 -215 -309 -246 -419 -43 -147 13 -291 145 -377 29 -20 30 -19 -34 -44 -65
-26 -89 -60 -94 -133 -4 -54 -2 -62 27 -94 28 -33 31 -41 31 -107 0 -41 -6
-87 -15 -108 -17 -41 -13 -52 11 -32 13 11 18 11 21 2 3 -9 28 -13 74 -13 l70
0 -6 44 c-12 75 28 152 50 99 4 -10 10 -45 14 -78 l6 -60 333 -3 332 -2 0 37
1 38 20 -37 19 -38 80 0 80 0 -30 59 c-16 33 -37 86 -46 119 l-17 60 28 36
c29 38 43 104 31 150 -13 53 -112 136 -161 136 -20 0 -19 4 11 49 121 183 35
491 -202 726 -37 36 -90 79 -119 95 -52 30 -53 31 -44 63 27 95 -5 203 -71
238 -45 25 -85 24 -137 -2z m7 -49 c0 -12 -28 -25 -36 -17 -9 9 6 27 22 27 8
0 14 -5 14 -10z m-59 -47 c-5 -10 -21 -28 -35 -40 -29 -25 -31 -35 -15 -64 11
-22 3 -79 -11 -79 -16 0 -22 65 -11 107 13 47 46 93 67 93 11 0 12 -5 5 -17z
m-11 -63 c0 -5 -4 -10 -10 -10 -5 0 -10 5 -10 10 0 6 5 10 10 10 6 0 10 -4 10
-10z m275 -163 c19 -15 13 -37 -9 -37 -18 0 -39 27 -31 40 8 13 17 13 40 -3z
m4 -203 c38 -32 42 -77 9 -95 -50 -27 -323 -64 -373 -51 -41 11 -76 72 -55 97
36 44 154 73 302 74 79 1 89 -1 117 -25z m-494 -107 c-54 -114 -75 -191 -75
-277 0 -79 22 -130 78 -183 27 -27 38 -45 35 -58 -7 -26 -13 -24 -62 17 -102
88 -122 212 -57 369 31 78 111 225 121 225 2 0 -16 -42 -40 -93z m399 -287 c8
-60 -5 -90 -39 -90 -24 0 -25 3 -25 64 0 59 2 65 23 69 12 2 25 5 28 6 4 0 9
-22 13 -49z m-74 -26 c0 -48 -3 -65 -12 -62 -19 7 -38 49 -38 84 0 35 6 44 32
44 16 0 18 -9 18 -66z m-232 -234 c12 -20 6 -25 -22 -14 -19 7 -21 34 -3 34 7
0 18 -9 25 -20z m-18 -79 c0 -44 72 -99 157 -121 l38 -10 -44 6 c-57 6 -138
41 -156 68 -17 23 -21 91 -5 81 6 -3 10 -14 10 -24z m-142 -56 c-11 -20 -20
-47 -20 -61 0 -17 -4 -22 -11 -15 -11 11 6 64 31 94 23 27 23 20 0 -18z m787
5 c-14 -23 -142 -71 -185 -69 -8 0 16 9 54 20 38 11 81 29 95 39 28 21 46 26
36 10z m-227 -77 c-10 -2 -26 -2 -35 0 -10 3 -2 5 17 5 19 0 27 -2 18 -5z
m-181 -9 c-3 -3 -12 -4 -19 -1 -8 3 -5 6 6 6 11 1 17 -2 13 -5z m86 -1 c-7 -2
-21 -2 -30 0 -10 3 -4 5 12 5 17 0 24 -2 18 -5z m-479 -29 c3 -8 2 -12 -4 -9
-6 3 -10 10 -10 16 0 14 7 11 14 -7z m224 -72 c4 -23 -12 -29 -37 -13 -19 12
-6 43 16 39 10 -2 19 -13 21 -26z m-179 -186 c-9 -8 -10 -5 -5 14 3 14 7 34 7
45 1 11 4 5 6 -14 3 -19 -1 -39 -8 -45z"/>
</g>
</svg>
